<svg width="32" height="33" viewBox="0 0 32 33" fill="none" xmlns="http://www.w3.org/2000/svg">
<path d="M16.0001 2.70691C8.38193 2.70691 2.20703 8.88181 2.20703 16.5C2.20703 24.1182 8.38193 30.2931 16.0001 30.2931C23.6183 30.2931 29.7932 24.1182 29.7932 16.5C29.7932 8.88181 23.6183 2.70691 16.0001 2.70691ZM23.1725 17.6035H17.1036V23.6724C17.1036 23.9651 16.9873 24.2457 16.7804 24.4527C16.5735 24.6596 16.2928 24.7759 16.0001 24.7759C15.7075 24.7759 15.4268 24.6596 15.2199 24.4527C15.0129 24.2457 14.8967 23.9651 14.8967 23.6724V17.6035H8.82772C8.53507 17.6035 8.2544 17.4872 8.04747 17.2803C7.84053 17.0733 7.72427 16.7927 7.72427 16.5C7.72427 16.2074 7.84053 15.9267 8.04747 15.7198C8.2544 15.5128 8.53507 15.3966 8.82772 15.3966H14.8967V9.3276C14.8967 9.03495 15.0129 8.75428 15.2199 8.54734C15.4268 8.34041 15.7075 8.22415 16.0001 8.22415C16.2928 8.22415 16.5735 8.34041 16.7804 8.54734C16.9873 8.75428 17.1036 9.03495 17.1036 9.3276V15.3966H23.1725C23.4652 15.3966 23.7459 15.5128 23.9528 15.7198C24.1597 15.9267 24.276 16.2074 24.276 16.5C24.276 16.7927 24.1597 17.0733 23.9528 17.2803C23.7459 17.4872 23.4652 17.6035 23.1725 17.6035Z" fill="black"/>
</svg>
