<svg width="120" height="120" viewBox="0 0 120 120" fill="none" xmlns="http://www.w3.org/2000/svg">
<rect width="120" height="120" rx="24" fill="white"/>
<path d="M86.6663 33.3333C86.6663 33.3333 66.293 32.3467 50.2397 54.3467C37.9197 71.2267 33.333 86.6667 33.333 86.6667L38.5063 84C42.3463 77.3333 44.3463 74.5867 48.1063 70.6667C54.853 72.64 61.893 72.4 67.9997 65.3333C62.6663 63.84 58.3997 64.1867 52.1063 64.8267C59.173 60 63.9997 58.9333 70.6663 60L73.333 54.6667C68.533 53.76 65.333 53.68 60.5863 54.7733C65.8397 51.0667 69.493 48.9867 75.9997 49.3333L79.2263 44.1867C75.0663 43.8933 72.5597 44.3467 67.7863 45.52C72.0797 41.6267 75.9997 39.8667 81.7063 39.52C81.7063 39.52 84.5063 34.48 86.6663 33.3333Z" fill="#3454CC"/>
<path d="M91.6663 38.3333C91.6663 38.3333 71.293 37.3467 55.2397 59.3467C42.9197 76.2267 38.333 91.6667 38.333 91.6667L43.5063 89C47.3463 82.3333 49.3463 79.5867 53.1063 75.6667C59.853 77.64 66.893 77.4 72.9997 70.3333C67.6663 68.84 63.3997 69.1867 57.1063 69.8267C64.173 65 68.9997 63.9333 75.6663 65L78.333 59.6667C73.533 58.76 70.333 58.68 65.5863 59.7733C70.8397 56.0667 74.493 53.9867 80.9997 54.3333L84.2263 49.1867C80.0663 48.8933 77.5597 49.3467 72.7863 50.52C77.0797 46.6267 80.9997 44.8667 86.7063 44.52C86.7063 44.52 89.5063 39.48 91.6663 38.3333Z" fill="#3454CC" fill-opacity="0.05"/>
</svg>
