<svg width="21" height="21" viewBox="0 0 21 21" fill="none" xmlns="http://www.w3.org/2000/svg">
<path d="M13.2669 9.00028C13.2669 8.19671 13.0679 7.56799 12.6698 7.11412C12.2718 6.66025 11.723 6.43331 11.0236 6.43331C10.5549 6.43331 10.0936 6.54678 9.63968 6.77372C9.18581 7.00065 8.77659 7.31501 8.412 7.7168C8.04742 8.11858 7.75166 8.62825 7.52473 9.24581C7.29779 9.86337 7.18433 10.533 7.18433 11.2547C7.18433 12.0881 7.38336 12.7317 7.78142 13.1855C8.17949 13.6394 8.73939 13.8664 9.46111 13.8664C10.1754 13.8664 10.8302 13.619 11.4254 13.1242C12.0206 12.6294 12.4764 12.0118 12.7926 11.2715C13.1088 10.5312 13.2669 9.77409 13.2669 9.00028ZM19.5616 10.3507C19.5616 11.1766 19.4239 11.9095 19.1486 12.5494C18.8733 13.1893 18.5069 13.6915 18.0493 14.0561C17.5917 14.4207 17.1025 14.6978 16.5816 14.8876C16.0608 15.0773 15.5214 15.1796 14.9633 15.1945C14.9187 15.1945 14.861 15.1963 14.7904 15.2001C14.7197 15.2038 14.6583 15.2056 14.6062 15.2056C13.8994 15.2056 13.3711 15.0085 13.0214 14.6141C12.813 14.3686 12.6903 14.0598 12.6531 13.6878C12.2662 14.1789 11.777 14.5881 11.1854 14.9155C10.5939 15.2428 9.94846 15.4065 9.24906 15.4065C8.05114 15.4065 7.12294 15.0512 6.46446 14.3407C5.80598 13.6301 5.47674 12.6275 5.47674 11.3329C5.47674 10.1647 5.72227 9.08584 6.21334 8.09626C6.70442 7.10668 7.37034 6.32357 8.21111 5.74693C9.05189 5.17029 9.96706 4.88198 10.9566 4.88198C11.604 4.88198 12.1806 5.01404 12.6866 5.27818C13.1925 5.54232 13.5869 5.91248 13.8696 6.38867L13.8919 6.17662L14.0147 5.55162C14.0221 5.50698 14.0426 5.46233 14.0761 5.41769C14.1095 5.37305 14.1449 5.35073 14.1821 5.35073H15.4991C15.5363 5.35073 15.5846 5.39165 15.6441 5.47349C15.6813 5.5107 15.6925 5.57022 15.6776 5.65206L14.3383 12.5047C14.3011 12.6833 14.2825 12.8619 14.2825 13.0405C14.2825 13.3306 14.329 13.5241 14.422 13.6208C14.5151 13.7175 14.6806 13.7659 14.9187 13.7659C15.127 13.7585 15.3391 13.738 15.5549 13.7045C15.7706 13.671 16.0422 13.5818 16.3696 13.4367C16.697 13.2916 16.9834 13.1056 17.229 12.8786C17.4745 12.6517 17.6866 12.3187 17.8651 11.8797C18.0437 11.4408 18.133 10.9311 18.133 10.3507C18.133 8.17811 17.4857 6.44448 16.191 5.14983C14.8964 3.85519 13.1627 3.20787 10.9901 3.20787C10.0229 3.20787 9.09839 3.3976 8.21669 3.77706C7.335 4.15653 6.57607 4.66434 5.93991 5.3005C5.30375 5.93666 4.79593 6.69559 4.41647 7.57729C4.037 8.45898 3.84727 9.38346 3.84727 10.3507C3.84727 11.318 4.037 12.2425 4.41647 13.1242C4.79593 14.0059 5.30375 14.7648 5.93991 15.4009C6.57607 16.0371 7.335 16.5449 8.21669 16.9244C9.09839 17.3038 10.0229 17.4936 10.9901 17.4936C12.6866 17.4936 14.1933 16.9579 15.5102 15.8864C15.5921 15.8195 15.6813 15.7897 15.7781 15.7972C15.8748 15.8046 15.9529 15.8492 16.0125 15.9311L16.47 16.478C16.5296 16.5672 16.5556 16.6565 16.5482 16.7458C16.5333 16.8425 16.4886 16.9244 16.4142 16.9913C15.6553 17.6089 14.809 18.0851 13.8752 18.4199C12.9414 18.7547 11.9797 18.9222 10.9901 18.9222C9.82941 18.9222 8.72078 18.6952 7.66424 18.2414C6.60769 17.7875 5.69623 17.1774 4.92986 16.411C4.16349 15.6446 3.55337 14.7332 3.0995 13.6766C2.64564 12.6201 2.4187 11.5114 2.4187 10.3507C2.4187 9.19001 2.64564 8.08138 3.0995 7.02483C3.55337 5.96828 4.16349 5.05683 4.92986 4.29046C5.69623 3.52409 6.60769 2.91397 7.66424 2.4601C8.72078 2.00623 9.82941 1.7793 10.9901 1.7793C13.5497 1.7793 15.6181 2.56799 17.1955 4.14537C18.7729 5.72275 19.5616 7.7912 19.5616 10.3507Z" fill="#111111" fill-opacity="0.37"/>
</svg>
