<svg width="32" height="32" viewBox="0 0 32 32" fill="none" xmlns="http://www.w3.org/2000/svg">
<path d="M21.9999 15H12.4099L14.7099 12.71C14.8982 12.5217 15.004 12.2663 15.004 12C15.004 11.7337 14.8982 11.4783 14.7099 11.29C14.5216 11.1017 14.2662 10.9959 13.9999 10.9959C13.7336 10.9959 13.4782 11.1017 13.2899 11.29L9.2899 15.29C9.19886 15.3851 9.12749 15.4973 9.0799 15.62C8.97988 15.8635 8.97988 16.1365 9.0799 16.38C9.12749 16.5028 9.19886 16.6149 9.2899 16.71L13.2899 20.71C13.3829 20.8037 13.4935 20.8781 13.6153 20.9289C13.7372 20.9797 13.8679 21.0058 13.9999 21.0058C14.1319 21.0058 14.2626 20.9797 14.3845 20.9289C14.5063 20.8781 14.6169 20.8037 14.7099 20.71C14.8036 20.617 14.878 20.5064 14.9288 20.3846C14.9796 20.2627 15.0057 20.132 15.0057 20C15.0057 19.868 14.9796 19.7373 14.9288 19.6154C14.878 19.4936 14.8036 19.383 14.7099 19.29L12.4099 17H21.9999C22.2651 17 22.5195 16.8946 22.707 16.7071C22.8945 16.5196 22.9999 16.2652 22.9999 16C22.9999 15.7348 22.8945 15.4804 22.707 15.2929C22.5195 15.1054 22.2651 15 21.9999 15Z" fill="black"/>
</svg>
