<svg width="24" height="25" viewBox="0 0 24 25" fill="none" xmlns="http://www.w3.org/2000/svg">
<path d="M11.9998 6.49995H19.9998C20.5998 6.49995 20.9998 6.09995 20.9998 5.49995C20.9998 4.89995 20.5998 4.49995 19.9998 4.49995H11.9998C11.3998 4.49995 10.9998 4.89995 10.9998 5.49995C10.9998 6.09995 11.3998 6.49995 11.9998 6.49995ZM19.9998 11.5H11.9998C11.3998 11.5 10.9998 11.9 10.9998 12.5C10.9998 13.1 11.3998 13.5 11.9998 13.5H19.9998C20.5998 13.5 20.9998 13.1 20.9998 12.5C20.9998 11.9 20.5998 11.5 19.9998 11.5ZM19.9998 18.5H11.9998C11.3998 18.5 10.9998 18.9 10.9998 19.5C10.9998 20.1 11.3998 20.5 11.9998 20.5H19.9998C20.5998 20.5 20.9998 20.1 20.9998 19.5C20.9998 18.9 20.5998 18.5 19.9998 18.5ZM7.1998 3.69995L5.4998 6.19995L4.9998 5.69995C4.5998 5.29995 3.9998 5.29995 3.5998 5.69995C3.1998 6.09995 3.1998 6.69995 3.5998 7.09995L4.8998 8.49995C5.0998 8.69995 5.2998 8.79995 5.5998 8.79995H5.6998C5.9998 8.79995 6.2998 8.59995 6.3998 8.39995L8.79981 4.79995C9.09981 4.29995 8.99981 3.69995 8.59981 3.39995C8.09981 3.09995 7.4998 3.19995 7.1998 3.69995ZM7.1998 10.7L5.4998 13.2L4.9998 12.7C4.5998 12.3 3.9998 12.3 3.5998 12.7C3.1998 13.1 3.1998 13.7 3.5998 14.1L4.8998 15.5C5.0998 15.7 5.2998 15.8 5.5998 15.8H5.6998C5.9998 15.8 6.2998 15.6 6.3998 15.4L8.79981 11.8C9.09981 11.3 8.9998 10.7 8.4998 10.4C8.0998 10.1 7.4998 10.2 7.1998 10.7ZM7.1998 17.7L5.4998 20.2L4.9998 19.7C4.5998 19.3 3.9998 19.3 3.5998 19.7C3.1998 20.1 3.1998 20.7 3.5998 21.1L4.8998 22.5C5.0998 22.7 5.2998 22.7999 5.5998 22.7999H5.6998C5.9998 22.7999 6.2998 22.6 6.3998 22.4L8.79981 18.8C9.09981 18.3 8.9998 17.7 8.4998 17.4C8.0998 17.1 7.4998 17.2 7.1998 17.7Z" fill="#6E672B"/>
</svg>
