<svg width="25" height="24" viewBox="0 0 25 24" fill="none" xmlns="http://www.w3.org/2000/svg">
<path d="M15.6992 3C15.9644 3 16.2188 3.10536 16.4063 3.29289C16.5939 3.48043 16.6992 3.73478 16.6992 4H18.6992C18.9644 4 19.2188 4.10536 19.4063 4.29289C19.5939 4.48043 19.6992 4.73478 19.6992 5C19.6992 5.26522 19.5939 5.51957 19.4063 5.70711C19.2188 5.89464 18.9644 6 18.6992 6H6.69922C6.434 6 6.17965 5.89464 5.99211 5.70711C5.80458 5.51957 5.69922 5.26522 5.69922 5C5.69922 4.73478 5.80458 4.48043 5.99211 4.29289C6.17965 4.10536 6.434 4 6.69922 4H8.69922C8.69922 3.73478 8.80458 3.48043 8.99211 3.29289C9.17965 3.10536 9.434 3 9.69922 3H15.6992Z" fill="black" fill-opacity="0.87"/>
<path fill-rule="evenodd" clip-rule="evenodd" d="M6.69922 7H18.6992V19C18.6992 19.5304 18.4885 20.0391 18.1134 20.4142C17.7384 20.7893 17.2297 21 16.6992 21H8.69922C8.16879 21 7.66008 20.7893 7.28501 20.4142C6.90993 20.0391 6.69922 19.5304 6.69922 19V7ZM10.1992 9C10.0666 9 9.93943 9.05268 9.84566 9.14645C9.7519 9.24021 9.69922 9.36739 9.69922 9.5V18.5C9.69922 18.6326 9.7519 18.7598 9.84566 18.8536C9.93943 18.9473 10.0666 19 10.1992 19C10.3318 19 10.459 18.9473 10.5528 18.8536C10.6465 18.7598 10.6992 18.6326 10.6992 18.5V9.5C10.6992 9.36739 10.6465 9.24021 10.5528 9.14645C10.459 9.05268 10.3318 9 10.1992 9ZM15.1992 9C15.0666 9 14.9394 9.05268 14.8457 9.14645C14.7519 9.24021 14.6992 9.36739 14.6992 9.5V18.5C14.6992 18.6326 14.7519 18.7598 14.8457 18.8536C14.9394 18.9473 15.0666 19 15.1992 19C15.3318 19 15.459 18.9473 15.5528 18.8536C15.6465 18.7598 15.6992 18.6326 15.6992 18.5V9.5C15.6992 9.36739 15.6465 9.24021 15.5528 9.14645C15.459 9.05268 15.3318 9 15.1992 9Z" fill="black" fill-opacity="0.87"/>
</svg>
