<svg width="255" height="201" viewBox="0 0 255 201" fill="none" xmlns="http://www.w3.org/2000/svg">
<path d="M132.576 165.854C168.83 165.854 198.22 136.464 198.22 100.21C198.22 63.9564 168.83 34.5668 132.576 34.5668C96.3222 34.5668 66.9326 63.9564 66.9326 100.21C66.9326 136.464 96.3222 165.854 132.576 165.854Z" fill="#DBE8EC"/>
<path d="M221.284 86.4717V79.3828C221.284 78.031 220.747 76.7345 219.791 75.7787C218.835 74.8228 217.539 74.2858 216.187 74.2858H198.196C196.845 74.2858 195.548 73.7488 194.592 72.7929C193.636 71.8371 193.099 70.5406 193.099 69.1888V62.0998C193.099 60.7481 193.636 59.4516 194.592 58.4958C195.548 57.5399 196.845 57.0029 198.196 57.0029H198.764C200.116 57.0029 201.413 56.4659 202.369 55.51C203.324 54.5541 203.861 53.2577 203.861 51.9059V44.8169C203.861 43.4651 203.324 42.1687 202.369 41.2128C201.413 40.257 200.116 39.72 198.764 39.72H68.053C66.7012 39.72 65.4047 40.257 64.4489 41.2128C63.493 42.1687 62.956 43.4651 62.956 44.8169V51.9059C62.956 53.2577 63.493 54.5541 64.4489 55.51C65.4047 56.4659 66.7012 57.0029 68.053 57.0029C69.4048 57.0029 70.7012 57.5399 71.6571 58.4958C72.6129 59.4516 73.1499 60.7481 73.1499 62.0998V69.1888C73.1499 70.5406 72.6129 71.8371 71.6571 72.7929C70.7012 73.7488 69.4048 74.2858 68.053 74.2858H48.3425C46.9907 74.2858 45.6943 74.8228 44.7384 75.7787C43.7826 76.7345 43.2456 78.031 43.2456 79.3828V86.4717C43.2456 87.8235 43.7826 89.12 44.7384 90.0758C45.6943 91.0317 46.9907 91.5687 48.3425 91.5687H56.0766C56.746 91.5687 57.4087 91.7005 58.0271 91.9567C58.6455 92.2128 59.2074 92.5883 59.6807 93.0616C60.154 93.5349 60.5295 94.0967 60.7856 94.7151C61.0418 95.3335 61.1736 95.9963 61.1736 96.6657V103.755C61.1736 105.106 60.6366 106.403 59.6807 107.359C58.7249 108.315 57.4284 108.852 56.0766 108.852H56.0579C54.7061 108.852 53.4097 109.389 52.4538 110.344C51.498 111.3 50.961 112.597 50.961 113.949V121.038C50.961 122.389 51.498 123.686 52.4538 124.642C53.4097 125.598 54.7061 126.135 56.0579 126.135H57.1769C57.8462 126.135 58.509 126.266 59.1274 126.523C59.7458 126.779 60.3077 127.154 60.781 127.627C61.2543 128.101 61.6297 128.663 61.8859 129.281C62.142 129.899 62.2739 130.562 62.2738 131.231V138.32C62.2738 139.672 61.7368 140.969 60.781 141.925C59.8251 142.88 58.5287 143.417 57.1769 143.417H38.8128C37.461 143.417 36.1646 143.954 35.2087 144.91C34.2528 145.866 33.7158 147.163 33.7158 148.514V155.603C33.7158 156.955 34.2528 158.252 35.2087 159.207C36.1646 160.163 37.461 160.7 38.8128 160.7H201.501C202.853 160.7 204.149 160.163 205.105 159.207C206.061 158.252 206.598 156.955 206.598 155.603V148.514C206.598 147.163 206.061 145.866 205.105 144.91C204.149 143.954 202.853 143.417 201.501 143.417H197.081C195.73 143.417 194.433 142.88 193.477 141.925C192.522 140.969 191.985 139.672 191.985 138.32V131.231C191.985 129.88 192.522 128.583 193.477 127.627C194.433 126.672 195.73 126.135 197.081 126.135H207.502C208.854 126.135 210.15 125.598 211.106 124.642C212.062 123.686 212.599 122.389 212.599 121.038V113.949C212.599 112.597 212.062 111.3 211.106 110.344C210.15 109.389 208.854 108.852 207.502 108.852H204.341C202.989 108.852 201.693 108.315 200.737 107.359C199.781 106.403 199.244 105.106 199.244 103.755V96.6657C199.244 95.3139 199.781 94.0174 200.737 93.0616C201.693 92.1057 202.989 91.5687 204.341 91.5687H216.187C217.539 91.5687 218.835 91.0317 219.791 90.0758C220.747 89.12 221.284 87.8235 221.284 86.4717Z" fill="#EAEAEA"/>
<path d="M189.725 114.13L146.975 137.158V84.9239L189.725 71.5779V114.13Z" fill="#111111"/>
<path d="M146.975 84.924L96.5098 79.8187L86.1671 64.5598C86.0474 64.3832 85.9781 64.1774 85.9666 63.9644C85.955 63.7514 86.0017 63.5392 86.1017 63.3508C86.2016 63.1623 86.351 63.0046 86.5338 62.8946C86.7166 62.7847 86.9259 62.7266 87.1392 62.7266H134.678C134.893 62.7266 135.103 62.7854 135.287 62.8966C135.471 63.0079 135.62 63.1673 135.719 63.3575L146.975 84.924Z" fill="#555555"/>
<path d="M96.5098 132.053L78.8853 128.386C78.6211 128.331 78.3838 128.186 78.2135 127.977C78.0432 127.768 77.9502 127.506 77.9502 127.236V77.4008C77.9502 77.2263 77.9891 77.0539 78.064 76.8964C78.139 76.7388 78.2481 76.5999 78.3835 76.4897C78.5189 76.3796 78.6772 76.3011 78.8467 76.2598C79.0163 76.2185 79.1929 76.2155 79.3638 76.2511L96.5098 79.8187V132.053Z" fill="#555555"/>
<path d="M163.989 142.823L146.975 137.158V84.924L164.731 90.8353C164.965 90.9132 165.169 91.0627 165.313 91.2627C165.457 91.4627 165.535 91.703 165.535 91.9495V141.708C165.535 141.894 165.491 142.078 165.406 142.243C165.321 142.409 165.198 142.552 165.047 142.661C164.896 142.77 164.722 142.841 164.538 142.869C164.354 142.897 164.166 142.881 163.989 142.823Z" fill="#555555"/>
<path d="M146.975 137.158L96.5098 132.053V79.8186L146.975 84.9238V137.158Z" fill="#1B1B1B"/>
<path d="M134.143 151.134L82.6504 149.079L96.5099 132.053L146.975 137.158L135.073 150.735C134.957 150.866 134.814 150.97 134.653 151.04C134.492 151.109 134.318 151.141 134.143 151.134Z" fill="#555555"/>
<path d="M146.976 84.9238L189.725 71.5779L137.471 66.7137L146.976 84.9238Z" fill="#222222"/>
<path d="M96.5098 132.053L146.975 108.489V84.9238L96.5098 79.8186V132.053Z" fill="#222222"/>
<path d="M99.5357 115.032C99.5357 115.032 105.049 112.619 106.514 114.342C107.978 116.065 111.252 116.841 111.252 116.841L114.094 112.016L121.848 115.635L126.069 121.406L123.312 128.212C123.312 128.212 117.713 128.126 115.042 129.246C112.372 130.366 105.394 130.452 105.394 130.452L102.206 124.335C102.206 124.335 98.1573 118.391 99.5357 115.032Z" fill="#DBE8EC"/>
<path d="M111.252 116.841C111.782 117.31 112.292 117.798 112.791 118.293C113.294 118.786 113.779 119.294 114.265 119.8C114.741 120.315 115.23 120.82 115.691 121.347C116.157 121.871 116.631 122.387 117.081 122.924L116.088 123.415C115.863 122.479 115.641 121.541 115.442 120.599C115.239 119.657 115.065 118.709 114.882 117.763C114.551 115.863 114.241 113.958 114.095 112.016C114.798 113.832 115.338 115.685 115.856 117.543C116.099 118.476 116.35 119.406 116.571 120.344C116.797 121.28 117 122.222 117.199 123.164L117.201 123.172C117.227 123.297 117.211 123.426 117.156 123.54C117.1 123.655 117.007 123.747 116.893 123.802C116.778 123.858 116.649 123.874 116.524 123.847C116.4 123.82 116.288 123.753 116.207 123.655C115.758 123.117 115.334 122.559 114.9 122.008C114.463 121.46 114.053 120.89 113.631 120.33C113.219 119.762 112.804 119.195 112.409 118.612C112.01 118.033 111.62 117.446 111.252 116.841Z" fill="#BAD5DB"/>
<path d="M121.848 115.635C121.519 116.344 121.149 117.025 120.78 117.707C120.402 118.382 120.021 119.056 119.619 119.716C119.229 120.383 118.809 121.031 118.399 121.685C117.987 122.337 117.551 122.973 117.127 123.618L116.529 122.716C117.314 122.555 118.101 122.409 118.89 122.269C119.682 122.145 120.47 121.998 121.266 121.894C122.059 121.776 122.857 121.68 123.655 121.59C124.457 121.514 125.257 121.432 126.069 121.406C125.31 121.694 124.539 121.926 123.77 122.164C122.998 122.388 122.225 122.606 121.447 122.802C120.672 123.012 119.889 123.179 119.11 123.369C118.328 123.543 117.545 123.71 116.758 123.863L116.746 123.866C116.632 123.888 116.514 123.875 116.408 123.83C116.301 123.785 116.211 123.708 116.148 123.611C116.085 123.514 116.052 123.4 116.054 123.284C116.057 123.168 116.093 123.056 116.16 122.961C116.604 122.33 117.036 121.691 117.49 121.067C117.948 120.445 118.395 119.817 118.873 119.208C119.338 118.592 119.825 117.99 120.313 117.39C120.812 116.796 121.309 116.201 121.848 115.635Z" fill="#BAD5DB"/>
<path d="M123.312 128.212C122.676 127.911 122.075 127.563 121.47 127.219C120.872 126.865 120.281 126.504 119.701 126.126C118.534 125.381 117.405 124.585 116.296 123.761L117.144 123.593C116.474 124.685 115.779 125.762 115.034 126.809C114.67 127.337 114.283 127.852 113.894 128.365C113.496 128.873 113.098 129.381 112.659 129.864C112.884 129.252 113.151 128.664 113.417 128.076C113.692 127.494 113.969 126.912 114.268 126.345C114.851 125.2 115.485 124.086 116.143 122.986C116.182 122.921 116.234 122.864 116.295 122.818C116.357 122.772 116.427 122.739 116.501 122.721C116.575 122.702 116.652 122.698 116.728 122.709C116.803 122.721 116.876 122.747 116.942 122.786L116.986 122.815L116.991 122.819C118.105 123.635 119.199 124.48 120.255 125.375C120.787 125.818 121.306 126.277 121.82 126.744C122.327 127.221 122.837 127.693 123.312 128.212Z" fill="#BAD5DB"/>
<path d="M99.5356 115.031C102.512 116.149 105.415 117.418 108.307 118.71C109.747 119.369 111.19 120.022 112.616 120.708C114.05 121.379 115.471 122.078 116.89 122.778L116.895 122.78C116.985 122.825 117.062 122.893 117.118 122.977C117.173 123.061 117.205 123.158 117.211 123.259C117.216 123.36 117.195 123.46 117.149 123.55C117.103 123.639 117.034 123.715 116.949 123.769C116.011 124.366 115.054 124.931 114.106 125.512C113.16 126.096 112.194 126.648 111.239 127.217C110.274 127.771 109.314 128.332 108.338 128.869C107.367 129.412 106.385 129.94 105.394 130.452C106.276 129.769 107.17 129.103 108.074 128.454C108.973 127.797 109.888 127.164 110.798 126.525C111.718 125.9 112.627 125.258 113.556 124.648C114.483 124.035 115.401 123.407 116.338 122.81L116.396 123.801C114.965 123.125 113.534 122.447 112.117 121.742C110.692 121.052 109.284 120.329 107.872 119.612C105.062 118.15 102.262 116.667 99.5356 115.031Z" fill="#BAD5DB"/>
<path d="M101.854 123.785C102.861 123.405 103.829 122.93 104.745 122.366C105.598 121.863 106.308 121.15 106.809 120.296C107.243 119.421 107.399 118.434 107.257 117.468C107.11 116.405 106.862 115.358 106.514 114.342C107.287 115.183 107.852 116.194 108.163 117.294C108.518 118.476 108.404 119.749 107.845 120.849C107.241 121.903 106.301 122.724 105.175 123.18C104.129 123.635 102.993 123.842 101.854 123.785Z" fill="#BAD5DB"/>
<path d="M110.659 120.401C110.595 121.204 110.457 121.999 110.246 122.776C110.046 123.54 109.804 124.294 109.522 125.032C109.242 125.771 108.922 126.495 108.563 127.199C108.203 127.919 107.776 128.605 107.289 129.245C107.351 128.442 107.489 127.647 107.7 126.87C107.9 126.105 108.142 125.352 108.425 124.614C108.706 123.875 109.027 123.152 109.387 122.448C109.746 121.728 110.172 121.042 110.659 120.401Z" fill="#BAD5DB"/>
<path d="M150.898 36.0754H163.543" stroke="#999999" stroke-width="1.17434" stroke-miterlimit="10" stroke-linecap="round"/>
<path d="M150.898 39.72H163.543" stroke="#999999" stroke-width="1.17434" stroke-miterlimit="10" stroke-linecap="round"/>
<path d="M150.898 43.3646H163.543" stroke="#999999" stroke-width="1.17434" stroke-miterlimit="10" stroke-linecap="round"/>
<path d="M46.9219 113.483H59.5667" stroke="#999999" stroke-width="1.17434" stroke-miterlimit="10" stroke-linecap="round"/>
<path d="M46.9219 117.128H59.5667" stroke="#999999" stroke-width="1.17434" stroke-miterlimit="10" stroke-linecap="round"/>
<path d="M46.9219 120.772H59.5667" stroke="#999999" stroke-width="1.17434" stroke-miterlimit="10" stroke-linecap="round"/>
<path d="M198.22 146.885H210.865" stroke="#999999" stroke-width="1.17434" stroke-miterlimit="10" stroke-linecap="round"/>
<path d="M198.22 150.529H210.865" stroke="#999999" stroke-width="1.17434" stroke-miterlimit="10" stroke-linecap="round"/>
<path d="M198.22 154.174H210.865" stroke="#999999" stroke-width="1.17434" stroke-miterlimit="10" stroke-linecap="round"/>
<path d="M214.315 84.613C217.3 84.613 219.72 82.1931 219.72 79.2081C219.72 76.2232 217.3 73.8033 214.315 73.8033C211.33 73.8033 208.91 76.2232 208.91 79.2081C208.91 82.1931 211.33 84.613 214.315 84.613Z" fill="#999999"/>
<path d="M200.052 85.9111C201.6 85.9111 202.854 84.6564 202.854 83.1086C202.854 81.5609 201.6 80.3062 200.052 80.3062C198.504 80.3062 197.25 81.5609 197.25 83.1086C197.25 84.6564 198.504 85.9111 200.052 85.9111Z" fill="#999999"/>
<path d="M207.168 69.9865C209.379 69.9865 211.172 68.194 211.172 65.9829C211.172 63.7718 209.379 61.9794 207.168 61.9794C204.957 61.9794 203.165 63.7718 203.165 65.9829C203.165 68.194 204.957 69.9865 207.168 69.9865Z" fill="#999999"/>
<path d="M64.626 158.86C68.1775 158.86 71.0567 155.981 71.0567 152.43C71.0567 148.878 68.1775 145.999 64.626 145.999C61.0744 145.999 58.1953 148.878 58.1953 152.43C58.1953 155.981 61.0744 158.86 64.626 158.86Z" fill="#999999"/>
<path d="M51.9102 158.988C53.7601 158.988 55.2598 157.488 55.2598 155.638C55.2598 153.788 53.7601 152.288 51.9102 152.288C50.0602 152.288 48.5605 153.788 48.5605 155.638C48.5605 157.488 50.0602 158.988 51.9102 158.988Z" fill="#999999"/>
<path d="M47.9761 146.451C49.0432 146.451 49.9082 145.586 49.9082 144.519C49.9082 143.452 49.0432 142.587 47.9761 142.587C46.909 142.587 46.0439 143.452 46.0439 144.519C46.0439 145.586 46.909 146.451 47.9761 146.451Z" fill="#999999"/>
<path d="M57.5566 144.202C60.1147 144.202 62.1885 142.128 62.1885 139.57C62.1885 137.012 60.1147 134.938 57.5566 134.938C54.9985 134.938 52.9248 137.012 52.9248 139.57C52.9248 142.128 54.9985 144.202 57.5566 144.202Z" fill="#999999"/>
<path d="M98.3096 59.457C101.861 59.457 104.74 56.5779 104.74 53.0264C104.74 49.4748 101.861 46.5957 98.3096 46.5957C94.758 46.5957 91.8789 49.4748 91.8789 53.0264C91.8789 56.5779 94.758 59.457 98.3096 59.457Z" fill="#999999"/>
<path d="M98.5703 43.2644C100.42 43.2644 101.92 41.7648 101.92 39.9148C101.92 38.0649 100.42 36.5652 98.5703 36.5652C96.7204 36.5652 95.2207 38.0649 95.2207 39.9148C95.2207 41.7648 96.7204 43.2644 98.5703 43.2644Z" fill="#999999"/>
<path d="M120.881 44.7711C122.482 44.7711 123.78 43.4731 123.78 41.872C123.78 40.2709 122.482 38.9729 120.881 38.9729C119.279 38.9729 117.981 40.2709 117.981 41.872C117.981 43.4731 119.279 44.7711 120.881 44.7711Z" fill="#999999"/>
<path d="M110.334 40.987C111.401 40.987 112.266 40.1219 112.266 39.0548C112.266 37.9877 111.401 37.1227 110.334 37.1227C109.266 37.1227 108.401 37.9877 108.401 39.0548C108.401 40.1219 109.266 40.987 110.334 40.987Z" fill="#999999"/>
<path d="M112.579 54.2333C115.137 54.2333 117.211 52.1595 117.211 49.6014C117.211 47.0433 115.137 44.9696 112.579 44.9696C110.021 44.9696 107.947 47.0433 107.947 49.6014C107.947 52.1595 110.021 54.2333 112.579 54.2333Z" fill="#999999"/>
<path d="M99.2494 143.432C99.2494 143.432 95.0495 147.742 93.0441 146.697C91.0388 145.652 87.7142 146.166 87.7142 146.166L86.8963 151.705L78.3514 151.272L72.268 147.513L72.2603 140.171C72.2603 140.171 77.4804 138.143 79.533 136.1C81.5856 134.057 88.0178 131.351 88.0178 131.351L93.2731 135.817C93.2731 135.817 99.2617 139.8 99.2494 143.432Z" fill="#D7D7D7"/>
<path d="M87.7143 146.166C86.4124 145.63 85.1403 145.038 83.8736 144.436C83.2441 144.128 82.6095 143.829 81.986 143.51C81.3607 143.194 80.7321 142.884 80.1133 142.556L80.603 142.003C81.7235 143.57 82.8058 145.164 83.867 146.773C84.9157 148.39 85.9518 150.016 86.8964 151.705C85.6395 150.233 84.4739 148.697 83.3209 147.153C82.1804 145.6 81.061 144.032 79.9799 142.437L79.977 142.433C79.9295 142.363 79.9067 142.279 79.9125 142.194C79.9183 142.11 79.9522 142.03 80.0089 141.966C80.0656 141.903 80.1417 141.861 80.2252 141.846C80.3087 141.832 80.3948 141.845 80.4696 141.885C81.088 142.214 81.6965 142.562 82.3084 142.903C82.922 143.241 83.5245 143.6 84.1322 143.95C85.3398 144.663 86.5419 145.386 87.7143 146.166Z" fill="#999999"/>
<path d="M78.3514 151.272C78.5192 149.73 78.7608 148.204 79.0272 146.683C79.2894 145.161 79.5945 143.649 79.9101 142.139L80.506 142.546L78.4913 143.856C77.8103 144.278 77.138 144.713 76.4498 145.125C75.7665 145.543 75.0751 145.95 74.3814 146.353C73.6824 146.748 72.9856 147.146 72.2681 147.513C72.8877 146.998 73.5281 146.514 74.1664 146.027C74.8099 145.548 75.4557 145.072 76.1096 144.609C76.7585 144.138 77.4235 143.692 78.0797 143.232L80.0766 141.895C80.1411 141.852 80.2171 141.829 80.2947 141.829C80.3724 141.83 80.4481 141.853 80.5122 141.897C80.5763 141.941 80.6258 142.003 80.6544 142.075C80.683 142.147 80.6893 142.226 80.6725 142.302C80.3415 143.809 79.9999 145.314 79.6155 146.809C79.2353 148.305 78.8303 149.796 78.3514 151.272Z" fill="#999999"/>
<path d="M72.2603 140.17C72.9518 140.254 73.6338 140.375 74.3167 140.492C74.9975 140.618 75.6768 140.749 76.3527 140.894C77.706 141.178 79.0494 141.5 80.3875 141.844L79.9073 142.159C80.0175 141.528 80.1149 140.895 80.2356 140.265C80.355 139.635 80.4694 139.005 80.6048 138.378C80.8654 137.122 81.1498 135.87 81.5078 134.63C81.4603 135.92 81.3392 137.198 81.1944 138.472C81.1269 139.11 81.0386 139.745 80.9553 140.38C80.8732 141.016 80.7679 141.648 80.6753 142.282C80.6606 142.383 80.6065 142.474 80.5248 142.534C80.4431 142.595 80.3406 142.621 80.2398 142.607L80.2013 142.599L80.1951 142.597C78.8561 142.257 77.5226 141.896 76.1988 141.497C75.5363 141.3 74.8771 141.09 74.2193 140.874C73.5637 140.649 72.9072 140.429 72.2603 140.17Z" fill="#999999"/>
<path d="M99.2495 143.432C97.6635 143.427 96.0801 143.383 94.4963 143.343C92.913 143.296 91.3311 143.229 89.7492 143.159C86.5863 143.007 83.4257 142.82 80.2673 142.599L80.2645 142.598C80.1974 142.594 80.1328 142.571 80.0773 142.533C80.0218 142.495 79.9775 142.443 79.9488 142.382C79.9201 142.321 79.9081 142.254 79.9141 142.187C79.92 142.12 79.9437 142.056 79.9827 142.001C80.6267 141.095 81.2906 140.204 81.9446 139.305C82.597 138.405 83.2701 137.52 83.9319 136.627C84.6041 135.742 85.2677 134.85 85.955 133.975C86.6407 133.099 87.3149 132.214 88.0179 131.351C87.4332 132.298 86.8197 133.226 86.2175 134.161C85.6171 135.098 84.993 136.018 84.3775 136.944C83.7515 137.862 83.1368 138.789 82.5015 139.701C81.8678 140.614 81.2439 141.534 80.6002 142.44L80.3156 141.842C83.4768 142.021 86.6355 142.238 89.7918 142.493C91.3696 142.625 92.9473 142.76 94.5237 142.915C96.0996 143.077 97.6758 143.234 99.2495 143.432Z" fill="#999999"/>
<path d="M93.8064 136.195C92.9667 136.873 92.2073 137.646 91.5432 138.497C90.8971 139.296 90.4795 140.255 90.3349 141.272C90.2804 141.768 90.3213 142.27 90.4553 142.751C90.5843 143.249 90.784 143.725 91.0483 144.165C91.6134 145.083 92.2832 145.933 93.0441 146.697C92.0617 146.15 91.2067 145.4 90.536 144.498C89.8095 143.556 89.4604 142.376 89.5567 141.19C89.7185 140.025 90.2518 138.943 91.0774 138.105C91.8435 137.285 92.7732 136.634 93.8064 136.195Z" fill="#999999"/>
<path d="M86.923 142.644C86.7533 141.866 86.6345 141.078 86.5672 140.285C86.4927 139.498 86.4451 138.71 86.4285 137.921C86.4092 137.133 86.4232 136.344 86.4627 135.554C86.4951 134.758 86.5799 133.966 86.7165 133.181C86.8871 133.959 87.0064 134.747 87.0735 135.54C87.1475 136.328 87.1958 137.116 87.211 137.904C87.2288 138.693 87.2157 139.482 87.1756 140.272C87.143 141.067 87.0586 141.86 86.923 142.644Z" fill="#999999"/>
</svg>
