<svg width="105" height="104" viewBox="0 0 105 104" fill="none" xmlns="http://www.w3.org/2000/svg">
<g filter="url(#filter0_d_41_893)">
<rect x="24.5" y="14" width="56" height="56" rx="28" fill="#111111" shape-rendering="crispEdges"/>
<path d="M52.3652 34.5121L52.5 34.5C52.8682 34.5 53.1744 34.7653 53.2379 35.1152L53.25 35.25V41.25H59.25C59.6182 41.25 59.9244 41.5153 59.9879 41.8652L60 42C60 42.3682 59.7347 42.6744 59.3848 42.7379L59.25 42.75H53.25V48.75C53.25 49.1182 52.9847 49.4244 52.6348 49.4879L52.5 49.5C52.1318 49.5 51.8256 49.2347 51.7621 48.8848L51.75 48.75V42.75H45.75C45.3818 42.75 45.0756 42.4847 45.0121 42.1348L45 42C45 41.6318 45.2653 41.3256 45.6152 41.2621L45.75 41.25H51.75V35.25C51.75 34.8818 52.0153 34.5756 52.3652 34.5121L52.5 34.5L52.3652 34.5121Z" fill="#FDFDFD"/>
</g>
<defs>
<filter id="filter0_d_41_893" x="0.5" y="0" width="104" height="104" filterUnits="userSpaceOnUse" color-interpolation-filters="sRGB">
<feFlood flood-opacity="0" result="BackgroundImageFix"/>
<feColorMatrix in="SourceAlpha" type="matrix" values="0 0 0 0 0 0 0 0 0 0 0 0 0 0 0 0 0 0 127 0" result="hardAlpha"/>
<feOffset dy="10"/>
<feGaussianBlur stdDeviation="12"/>
<feComposite in2="hardAlpha" operator="out"/>
<feColorMatrix type="matrix" values="0 0 0 0 0 0 0 0 0 0 0 0 0 0 0 0 0 0 0.05 0"/>
<feBlend mode="normal" in2="BackgroundImageFix" result="effect1_dropShadow_41_893"/>
<feBlend mode="normal" in="SourceGraphic" in2="effect1_dropShadow_41_893" result="shape"/>
</filter>
</defs>
</svg>
