<svg width="48" height="48" viewBox="0 0 48 48" fill="none" xmlns="http://www.w3.org/2000/svg">
<path d="M44 4.00001C44 4.00001 28.72 3.26001 16.68 19.76C7.44 32.42 4 44 4 44L7.88 42C10.76 37 12.26 34.94 15.08 32C20.14 33.48 25.42 33.3 30 28C26 26.88 22.8 27.14 18.08 27.62C23.38 24 27 23.2 32 24L34 20C30.4 19.32 28 19.26 24.44 20.08C28.38 17.3 31.12 15.74 36 16L38.42 12.14C35.3 11.92 33.42 12.26 29.84 13.14C33.06 10.22 36 8.90001 40.28 8.64001C40.28 8.64001 42.38 4.86001 44 4.00001V4.00001Z" fill="black"/>
</svg>
