<svg width="256" height="186" viewBox="0 0 256 186" fill="none" xmlns="http://www.w3.org/2000/svg">
<g clip-path="url(#clip0_122_220)">
<path opacity="0.18" d="M40.8083 38.8507C33.2434 40.4544 25.38 42.1949 19.3069 46.9844C14.1786 51.0249 6.18788 58.4842 3.76671 64.5448C-6.48982 90.1458 5.10628 121.298 27.6147 137.229C38.2007 144.723 51.3943 148.35 60.908 157.171C66.9252 162.75 71.1397 170.134 77.5423 175.263C86.8975 182.75 99.5286 184.406 111.482 185.208C119.787 185.771 128.415 186.013 136.12 182.856C141.689 180.574 146.407 176.661 151.038 172.804L181.718 147.185C186.647 143.073 191.256 136.524 197.674 136.567C255.44 136.981 259.335 68.9987 170.678 38.888C162.864 36.2337 157.506 28.8552 150.165 25.0727C135.001 17.256 117.549 19.7891 102.254 25.197C82.8353 32.0814 60.9609 34.5647 40.8083 38.8507Z" fill="#555555"/>
<path opacity="0.05" d="M242.138 148.521C244.556 148.562 247.67 149.165 248.043 151.552C248.245 152.795 247.533 154.004 246.762 155.008C241.942 161.308 233.954 164.494 226.072 165.348C218.19 166.203 210.246 165.006 202.376 164.037C191.005 162.632 179.588 161.699 168.126 161.239C159.977 160.91 151.405 160.705 144.387 156.553C143.084 155.785 141.804 154.824 141.179 153.445C139.936 150.7 141.9 147.359 144.598 146.026C147.296 144.692 150.466 144.823 153.475 144.984C183.02 146.576 212.543 148.521 242.138 148.521Z" fill="#000405"/>
<path d="M242.241 39.2863C242.241 39.2863 231.726 52.884 229.731 55.1622C226.091 59.3021 223.745 64.7318 223.745 64.7318L218.461 87.2154L212.556 85.6396L199.717 82.2208C199.717 82.2208 204.279 69.9316 202.069 66.2019C199.123 61.2291 201.671 58.121 202.343 55.9858C203.586 52.0293 197.236 44.7969 197.236 44.7969L193.168 26.5744L199.309 25.7539L203.766 40.5264L211.403 47.3424L216.842 47.6314C216.842 47.6314 220.944 48.4768 223.928 47.0968C226.781 45.7728 236.861 34.4067 236.861 34.4067L240.973 38.1363L242.241 39.2863ZM191.869 62.3449V143.328C191.868 144.343 191.668 145.347 191.279 146.285C190.891 147.222 190.321 148.073 189.603 148.791C188.886 149.508 188.034 150.077 187.096 150.464C186.158 150.852 185.154 151.052 184.139 151.051H63.0218C62.0068 151.051 61.0018 150.852 60.0642 150.463C59.1266 150.075 58.2747 149.505 57.5571 148.787C56.8396 148.069 56.2705 147.217 55.8824 146.28C55.4943 145.342 55.2948 144.337 55.2952 143.322V62.3449C55.2944 61.3298 55.4936 60.3246 55.8816 59.3866C56.2696 58.4486 56.8386 57.5963 57.5562 56.8784C58.2738 56.1605 59.1259 55.5911 60.0637 55.2028C61.0015 54.8144 62.0067 54.6148 63.0218 54.6152H184.139C186.189 54.6152 188.155 55.4296 189.605 56.8791C191.054 58.3287 191.869 60.2948 191.869 62.3449Z" fill="#555555"/>
<path d="M189.774 57.0857H57.1816L58.257 56.2621C58.3067 56.219 58.3586 56.1785 58.4124 56.1408L121.487 7.79216L123.479 6.26611L187.651 55.4602L189.774 57.0857Z" fill="#555555"/>
<path d="M191.869 62.344L190.256 63.5095L178.51 72.0162L121.487 113.319L66.6457 71.0838L55.2952 62.344L55.4412 60.8428C55.7177 59.4353 56.3832 58.1336 57.362 57.0852C57.6368 56.786 57.9362 56.5105 58.2571 56.2615C58.3068 56.2185 58.3587 56.178 58.4125 56.1403C59.7438 55.1472 61.3609 54.6118 63.0218 54.6143H184.139C186.059 54.6153 187.911 55.3309 189.333 56.6218C190.755 57.9127 191.645 59.6866 191.831 61.598C191.856 61.8459 191.869 62.0948 191.869 62.344Z" fill="#555555"/>
<path opacity="0.61" d="M58.257 56.2559C57.9376 56.5066 57.6383 56.782 57.3619 57.0795H57.1816L58.257 56.2559Z" fill="url(#paint0_linear_122_220)"/>
<path opacity="0.61" d="M191.869 62.3445L190.256 63.5131L178.51 72.0167L121.487 113.319L66.6457 71.0874L55.2952 62.3445L55.4412 60.8464C55.7178 59.4381 56.3832 58.1353 57.362 57.0857C57.6384 56.7882 57.9377 56.5128 58.2571 56.2621L58.4125 56.144L121.487 7.79216L123.479 6.26611L187.651 55.4602C188.808 56.0495 189.798 56.9212 190.529 57.9948C191.26 59.0683 191.708 60.3089 191.831 61.6017C191.856 61.8485 191.869 62.0964 191.869 62.3445Z" fill="url(#paint1_linear_122_220)"/>
<path d="M178.51 56.3611V72.0194L157.466 87.2488L152.639 90.7547L121.487 113.319L92.1876 90.7547L87.653 87.2612L66.6458 71.0994V56.3611C66.6458 55.1436 67.1294 53.976 67.9903 53.1151C68.8512 52.2542 70.0188 51.7705 71.2363 51.7705H173.923C175.14 51.7713 176.307 52.2553 177.167 53.1162C178.027 53.977 178.51 55.1441 178.51 56.3611Z" fill="white"/>
<path d="M163.088 70.0896H80.1034C79.6401 70.0896 79.1959 69.9056 78.8683 69.578C78.5407 69.2505 78.3567 68.8062 78.3567 68.3429C78.3567 68.1135 78.4019 67.8864 78.4897 67.6745C78.5774 67.4625 78.7061 67.27 78.8683 67.1078C79.0305 66.9456 79.223 66.8169 79.435 66.7292C79.6469 66.6414 79.874 66.5962 80.1034 66.5962H163.088C163.317 66.5962 163.545 66.6414 163.757 66.7292C163.968 66.8169 164.161 66.9456 164.323 67.1078C164.485 67.27 164.614 67.4625 164.702 67.6745C164.79 67.8864 164.835 68.1135 164.835 68.3429C164.835 68.8062 164.651 69.2505 164.323 69.578C163.996 69.9056 163.551 70.0896 163.088 70.0896Z" fill="url(#paint2_linear_122_220)"/>
<path d="M163.088 80.4241H80.1034C79.6401 80.4241 79.1959 80.2401 78.8683 79.9125C78.5407 79.5849 78.3567 79.1406 78.3567 78.6774C78.3567 78.2141 78.5407 77.7698 78.8683 77.4423C79.1959 77.1147 79.6401 76.9307 80.1034 76.9307H163.088C163.551 76.9307 163.996 77.1147 164.323 77.4423C164.651 77.7698 164.835 78.2141 164.835 78.6774C164.835 79.1406 164.651 79.5849 164.323 79.9125C163.996 80.2401 163.551 80.4241 163.088 80.4241Z" fill="url(#paint3_linear_122_220)"/>
<path d="M157.466 87.2617L152.639 90.7552H92.1876L87.6499 87.2617H157.466Z" fill="url(#paint4_linear_122_220)"/>
<path opacity="0.05" d="M121.487 113.319L70.8696 151.057H173.149L121.487 113.319Z" fill="#000405"/>
<path d="M77.8254 28.0355C75.2768 22.5684 65.704 23.4667 65.704 23.4667C71.6093 19.9826 70.478 11.134 70.4065 10.6118C72.9893 18.326 81.9062 16.6228 82.705 16.4549C76.7842 17.9157 77.8254 28.0355 77.8254 28.0355ZM61.2284 39.2524C59.6092 35.7776 53.5205 36.3495 53.5205 36.3495C57.3745 34.0589 56.5011 28.1629 56.5011 28.1629V28.1971C58.1546 33.0736 63.8112 31.992 64.3147 31.8864C60.5664 32.8188 61.2284 39.2524 61.2284 39.2524Z" fill="#555555"/>
<path d="M224.264 28.8119C225.015 28.2087 225.964 27.9092 226.925 27.9727C227.628 27.9442 228.316 28.1817 228.852 28.6379C229.264 29.1014 229.526 29.6789 229.604 30.2944C229.756 31.0574 229.813 31.8361 229.775 32.613C229.707 34.0396 229.337 35.5501 229.952 36.84C230.099 37.1464 230.297 37.4259 230.536 37.6667C230.814 37.9782 231.202 38.1708 231.618 38.2044C231.825 38.2136 232.028 38.1485 232.191 38.0208C232.354 37.8931 232.466 37.7113 232.507 37.5082C232.3 37.9689 231.99 38.3759 231.601 38.6979C231.212 39.02 230.754 39.2485 230.263 39.3659C229.772 39.4833 229.261 39.4864 228.768 39.375C228.275 39.2637 227.815 39.0407 227.422 38.7234L227.963 39.8206C227.515 39.7048 227.082 39.5402 226.67 39.3295C225.349 38.6116 224.609 37.1539 224.258 35.6807C223.947 34.3287 223.885 32.9332 223.593 31.575C223.366 30.5338 223.422 29.5641 224.264 28.8119Z" fill="#3F3D56"/>
<path d="M223.866 30.3037C224.135 30.2951 224.402 30.3361 224.656 30.4249C224.866 30.5122 225.048 30.6555 225.182 30.839C225.316 31.0226 225.398 31.2395 225.417 31.4661C225.429 31.6939 225.374 31.92 225.259 32.117C225.144 32.3141 224.975 32.4734 224.771 32.5757C224.505 32.685 224.219 32.7348 223.932 32.7218C223.67 32.7218 223.406 32.7218 223.145 32.6969C223.07 32.6971 222.997 32.679 222.931 32.6441C222.864 32.5893 222.813 32.5173 222.785 32.4358C222.615 32.0972 222.486 31.7392 222.402 31.3698C222.188 30.226 222.959 30.2944 223.866 30.3037Z" fill="#555555"/>
<path d="M218.809 41.2163C218.809 41.2163 218.759 42.1145 218.697 43.2832C218.644 44.2684 218.579 45.4588 218.526 46.4471C218.436 48.119 217.718 49.6951 216.515 50.8606C215.813 51.5785 214.138 52.9181 212.86 52.4425C212.239 52.2126 212.217 51.4293 212.347 50.96C212.635 50.1044 212.795 49.2111 212.823 48.3089C212.843 47.5785 212.778 46.8482 212.627 46.1332C211.825 44.1348 218.809 41.2163 218.809 41.2163Z" fill="url(#paint5_linear_122_220)"/>
<path d="M218.809 41.2163C218.809 41.2163 218.76 42.1145 218.698 43.2832C218.206 44.3772 217.746 45.2692 217.495 45.7136C216.988 46.6119 214.906 48.026 212.833 48.3089C212.853 47.5785 212.787 46.8482 212.637 46.1332C211.826 44.1348 218.809 41.2163 218.809 41.2163Z" fill="url(#paint6_linear_122_220)"/>
<path d="M212.727 29.3156C211.812 29.3713 210.918 29.6148 210.101 30.031C209.284 30.4472 208.561 31.0272 207.978 31.7349C207.395 32.4425 206.963 33.2626 206.711 34.1442C206.459 35.0257 206.391 35.9498 206.511 36.8589C206.719 39.5743 207.416 42.2299 208.568 44.6973C210.744 48.427 216.258 45.3593 217.131 43.824C218.004 42.2886 221.355 35.3639 219.947 33.4027C218.977 32.0787 216.289 29.1727 212.727 29.3156Z" fill="url(#paint7_linear_122_220)"/>
<path d="M210.769 25.5261C213.108 24.8428 215.604 24.9156 217.899 25.7343C220.158 26.5921 222.107 28.3575 222.968 30.617C223.709 32.711 223.638 35.0065 222.769 37.0507C221.894 39.0782 220.501 40.8395 218.729 42.1572C218.272 40.7586 219.68 39.5154 220.227 38.1509C220.354 37.8988 220.381 37.6082 220.305 37.3366C220.106 36.83 219.347 36.7741 218.915 37.1035C218.483 37.433 218.294 37.9893 218.135 38.5084C218.555 36.2861 218.866 33.6754 217.293 32.0467C216.36 31.0833 214.952 30.7227 213.61 30.7103C212.377 30.7066 211.156 30.956 210.023 31.4431C208.89 31.9301 207.87 32.6444 207.024 33.5417C206.53 34.0732 205.827 34.7259 205.199 34.3591C205.004 34.2255 204.851 34.039 204.758 33.8214C202.903 30.1477 207.776 26.3466 210.769 25.5261Z" fill="#3F3D56"/>
<path d="M213.771 29.6319C212.217 28.9481 210.585 28.3887 208.898 28.3887C207.21 28.3887 205.46 28.9606 204.345 30.2286C203.762 30.9353 203.338 31.7588 203.101 32.6436C202.914 33.1971 202.84 33.7827 202.884 34.3654C202.951 34.788 203.055 35.204 203.195 35.6087C203.487 36.6157 203.611 37.7843 202.974 38.6297C202.856 38.7982 202.701 38.9378 202.521 39.038C202.341 39.1381 202.141 39.1961 201.936 39.2078C201.73 39.2114 201.53 39.1398 201.373 39.0065C201.216 38.8732 201.114 38.6873 201.084 38.4836C200.811 39.2575 201.258 40.165 201.97 40.5722C202.337 40.7588 202.739 40.8656 203.15 40.8854C203.56 40.9052 203.971 40.8377 204.354 40.6872C204.676 40.5856 204.975 40.422 205.233 40.2054C205.489 39.9592 205.7 39.6699 205.855 39.3507C206.505 38.1728 206.831 36.8643 207.316 35.5931C207.801 34.3219 208.503 33.1067 209.65 32.3918C210.559 31.8958 211.58 31.6421 212.615 31.6552C213.644 31.621 214.679 31.705 215.704 31.6117C216.73 31.5185 215.987 30.9093 215.546 30.5892C214.989 30.2099 214.394 29.8891 213.771 29.6319Z" fill="#3F3D56"/>
<path d="M255.515 18.4902C255.779 18.6953 253.305 20.6223 253.305 20.6223C253.305 20.6223 252.149 22.6145 250.974 23.1678C249.799 23.721 240.972 38.133 240.972 38.133L237.488 34.9752L245.004 24.8648C245.004 24.8648 247.49 20.1001 247.213 18.0271C247.213 18.0271 247.363 15.5779 248.112 16.7155C248.64 17.5267 248.301 18.8041 248.926 18.9408C248.995 18.9471 249.065 18.9319 249.125 18.8973C249.643 18.5827 250.118 18.2025 250.539 17.766C251.782 16.5818 253.268 14.9346 253.268 14.9346C253.268 14.9346 254.082 14.5896 253.98 14.9346C253.877 15.2796 252.382 17.6075 252.298 17.7318C252.438 17.6044 254.732 15.5562 255.095 15.7147C255.459 15.8732 253.318 18.2322 253.193 18.369C253.327 18.2757 255.773 16.5725 255.956 16.7248C256.301 17.0139 254.091 18.9315 253.908 19.0776C254.048 19.003 255.263 18.2913 255.515 18.4902Z" fill="url(#paint8_linear_122_220)"/>
<path d="M252.892 19.9663C252.707 20.0267 252.51 20.0427 252.317 20.0129C251.69 19.9652 251.061 19.9548 250.434 19.9818C250.011 20.0005 249.137 20.2926 249.116 19.6368C249.116 19.4628 249.159 19.2919 249.15 19.1178C249.15 19.0432 249.131 18.9686 249.119 18.894C249.637 18.5794 250.112 18.1992 250.533 17.7627C250.723 17.8263 250.904 17.9174 251.068 18.0331C251.482 18.3004 251.89 18.5646 252.292 18.8256C252.51 18.9686 252.727 19.1116 252.936 19.267C253.028 19.3245 253.101 19.4077 253.147 19.5063C253.167 19.6008 253.152 19.6994 253.105 19.7839C253.059 19.8684 252.983 19.9332 252.892 19.9663Z" fill="url(#paint9_linear_122_220)"/>
<path d="M192.201 2.30652C191.865 2.34381 192.953 5.28402 192.953 5.28402C192.953 5.28402 192.885 7.58708 193.59 8.67489C194.296 9.76271 194.196 26.4373 194.196 26.4373L198.821 25.8157L197.771 13.2561C197.771 13.2561 198.172 7.89788 199.499 6.28481C199.499 6.28481 200.661 4.12472 199.427 4.6966C198.551 5.10686 198.162 6.36873 197.562 6.15738C197.5 6.12641 197.449 6.07635 197.416 6.01441C197.134 5.4758 196.925 4.90197 196.795 4.30809C196.356 2.64529 195.971 0.463448 195.971 0.463448C195.971 0.463448 195.474 -0.251402 195.393 0.0935908C195.312 0.438583 195.34 3.20163 195.343 3.36014C195.29 3.18298 194.426 0.224128 194.022 0.171292C193.618 0.118455 194.206 3.24825 194.243 3.42852C194.175 3.27933 193 0.544257 192.757 0.575337C192.313 0.640606 193.196 3.44406 193.261 3.6523C193.174 3.51554 192.518 2.27544 192.201 2.30652Z" fill="url(#paint10_linear_122_220)"/>
<path d="M193.643 4.94577C193.769 5.09326 193.928 5.20928 194.106 5.28455C194.664 5.57528 195.204 5.89909 195.723 6.25426C196.074 6.49358 196.655 7.20843 197.025 6.6552C197.124 6.51223 197.171 6.34439 197.27 6.19831C197.316 6.13653 197.364 6.07738 197.416 6.02116C197.134 5.48255 196.925 4.90872 196.795 4.31484C196.6 4.26867 196.398 4.25191 196.198 4.26511L194.74 4.29309C194.479 4.29309 194.218 4.29309 193.957 4.32727C193.847 4.32678 193.738 4.35924 193.646 4.42051C193.583 4.49304 193.547 4.58608 193.547 4.68256C193.546 4.77905 193.581 4.8725 193.643 4.94577Z" fill="url(#paint11_linear_122_220)"/>
<path d="M175.812 148.941C174.569 151.48 173.665 153.454 173.665 153.454L158.022 154.2C158.022 154.2 160.614 147.341 164.832 149.112C166.258 149.709 171.427 148.587 171.427 148.587L171.589 148.068L175.812 148.941Z" fill="url(#paint12_linear_122_220)"/>
<path d="M231.254 149.709L228.857 151.052L208.344 129.488L206.082 100.701L187.378 117.668C187.378 117.668 187.878 129.351 181.339 138.492C180.167 140.13 177.783 144.888 175.98 148.606C175.924 148.721 175.868 148.839 175.816 148.954L175.464 148.882L174.243 148.627L171.592 148.08L180.189 113.332L199.723 82.2334L212.562 85.6522L218.467 87.228C218.467 87.228 222.452 95.2126 218.467 115.878L215.825 127.707C215.825 127.707 226.474 133.386 229.756 144.618L231.251 149.703L231.254 149.709Z" fill="#3A3A3A"/>
<path d="M231.254 149.708L233.687 152.254L227.512 158.694H219.431C219.431 158.694 221.153 155.85 224.596 155.399C228.04 154.949 228.864 151.048 228.864 151.048L231.254 149.708Z" fill="url(#paint13_linear_122_220)"/>
<path opacity="0.22" d="M67.0747 23.0191L65.7103 23.4667C71.6155 19.9826 70.4842 11.134 70.4127 10.6118C70.506 11.0314 71.8797 16.8714 71.1307 18.7891C70.1952 21.1854 67.0747 23.0191 67.0747 23.0191ZM57.3154 33.7046C56.5944 34.7022 53.7288 36.2407 53.533 36.3433C57.3869 34.0527 56.5136 28.1567 56.5136 28.1567V28.1909C56.6659 28.5949 58.0179 32.7286 57.3154 33.7046Z" fill="white"/>
<path opacity="0.22" d="M55.5252 66.5965L118.827 115.303L121.487 113.32L55.2952 62.3447L55.5252 66.5965ZM123.582 114.989L191.869 65.8382V62.4846L121.487 113.456L123.582 114.989Z" fill="white"/>
<path opacity="0.22" d="M191.831 61.7382L191.645 62.2604L190.255 63.6497C191.231 61.9651 188.474 58.0552 188.474 58.0552L187.374 57.2316L184.07 54.7451L121.487 7.93181L123.479 6.40576L187.651 55.5967C188.808 56.1867 189.797 57.0587 190.528 58.1321C191.258 59.2055 191.706 60.4457 191.831 61.7382Z" fill="white"/>
<path opacity="0.61" d="M242.241 39.2859C242.241 39.2859 231.726 52.8836 229.731 55.1618C226.091 59.3017 223.745 64.7314 223.745 64.7314L218.461 87.215L212.556 85.6392C212.556 85.6392 218.069 65.0236 220.285 60.6475C222.501 56.2713 240.966 38.1328 240.966 38.1328L242.241 39.2859Z" fill="url(#paint14_linear_122_220)"/>
<path d="M231.251 149.702C231.142 149.391 227.633 139.644 222.365 135.557C217.016 131.405 213.908 125.674 213.908 125.674C212.649 114.671 212.562 85.6392 212.562 85.6392L218.467 87.2149C218.467 87.2149 222.452 95.1995 218.467 115.865L215.826 127.694C215.826 127.694 226.474 133.385 229.756 144.617L231.251 149.702ZM187.378 117.661C187.378 117.661 187.878 129.344 181.339 138.485C180.167 140.123 177.783 144.882 175.981 148.599L175.465 148.875L174.243 148.62L184.382 116.642C184.382 116.642 196.661 102.093 198.909 100.701C201.156 99.3083 206.082 100.701 206.082 100.701L187.378 117.661Z" fill="#25233A"/>
</g>
<defs>
<linearGradient id="paint0_linear_122_220" x1="57.2314" y1="58.0026" x2="58.4217" y2="54.7671" gradientUnits="userSpaceOnUse">
<stop offset="0.36" stop-color="#00272E"/>
<stop offset="0.75" stop-color="#3F80A1" stop-opacity="0.25"/>
<stop offset="1" stop-color="#69B9EB" stop-opacity="0"/>
</linearGradient>
<linearGradient id="paint1_linear_122_220" x1="106.596" y1="107.843" x2="141.512" y2="12.8987" gradientUnits="userSpaceOnUse">
<stop offset="0.36" stop-color="#00272E"/>
<stop offset="0.75" stop-color="#3F80A1" stop-opacity="0.25"/>
<stop offset="1" stop-color="#69B9EB" stop-opacity="0"/>
</linearGradient>
<linearGradient id="paint2_linear_122_220" x1="122.105" y1="43.3916" x2="118.96" y2="197.037" gradientUnits="userSpaceOnUse">
<stop stop-color="#68E1FD"/>
<stop offset="0.01" stop-color="#67DDF9"/>
<stop offset="0.12" stop-color="#5CB3CE"/>
<stop offset="0.24" stop-color="#538EA9"/>
<stop offset="0.37" stop-color="#4C718B"/>
<stop offset="0.5" stop-color="#465A73"/>
<stop offset="0.63" stop-color="#424A63"/>
<stop offset="0.79" stop-color="#404059"/>
<stop offset="0.99" stop-color="#3F3D56"/>
</linearGradient>
<linearGradient id="paint3_linear_122_220" x1="122.317" y1="43.3949" x2="119.171" y2="197.044" gradientUnits="userSpaceOnUse">
<stop stop-color="#68E1FD"/>
<stop offset="0.01" stop-color="#67DDF9"/>
<stop offset="0.12" stop-color="#5CB3CE"/>
<stop offset="0.24" stop-color="#538EA9"/>
<stop offset="0.37" stop-color="#4C718B"/>
<stop offset="0.5" stop-color="#465A73"/>
<stop offset="0.63" stop-color="#424A63"/>
<stop offset="0.79" stop-color="#404059"/>
<stop offset="0.99" stop-color="#3F3D56"/>
</linearGradient>
<linearGradient id="paint4_linear_122_220" x1="123.455" y1="43.4166" x2="120.309" y2="197.066" gradientUnits="userSpaceOnUse">
<stop stop-color="#68E1FD"/>
<stop offset="0.01" stop-color="#67DDF9"/>
<stop offset="0.12" stop-color="#5CB3CE"/>
<stop offset="0.24" stop-color="#538EA9"/>
<stop offset="0.37" stop-color="#4C718B"/>
<stop offset="0.5" stop-color="#465A73"/>
<stop offset="0.63" stop-color="#424A63"/>
<stop offset="0.79" stop-color="#404059"/>
<stop offset="0.99" stop-color="#3F3D56"/>
</linearGradient>
<linearGradient id="paint5_linear_122_220" x1="212.285" y1="46.8792" x2="218.809" y2="46.8792" gradientUnits="userSpaceOnUse">
<stop stop-color="#ECC4D7"/>
<stop offset="0.42" stop-color="#EFD4D1"/>
<stop offset="1" stop-color="#F2EAC9"/>
</linearGradient>
<linearGradient id="paint6_linear_122_220" x1="215.742" y1="43.249" x2="214.396" y2="58.3385" gradientUnits="userSpaceOnUse">
<stop stop-color="#ECC4D7"/>
<stop offset="0.42" stop-color="#EFD4D1"/>
<stop offset="1" stop-color="#F2EAC9"/>
</linearGradient>
<linearGradient id="paint7_linear_122_220" x1="206.458" y1="37.8907" x2="220.292" y2="37.8907" gradientUnits="userSpaceOnUse">
<stop stop-color="#ECC4D7"/>
<stop offset="0.42" stop-color="#EFD4D1"/>
<stop offset="1" stop-color="#F2EAC9"/>
</linearGradient>
<linearGradient id="paint8_linear_122_220" x1="237.488" y1="26.4561" x2="256" y2="26.4561" gradientUnits="userSpaceOnUse">
<stop stop-color="#ECC4D7"/>
<stop offset="0.42" stop-color="#EFD4D1"/>
<stop offset="1" stop-color="#F2EAC9"/>
</linearGradient>
<linearGradient id="paint9_linear_122_220" x1="251.742" y1="24.2647" x2="249.871" y2="9.73773" gradientUnits="userSpaceOnUse">
<stop stop-color="#ECC4D7"/>
<stop offset="0.42" stop-color="#EFD4D1"/>
<stop offset="1" stop-color="#F2EAC9"/>
</linearGradient>
<linearGradient id="paint10_linear_122_220" x1="203.477" y1="18.6416" x2="187.781" y2="8.83362" gradientUnits="userSpaceOnUse">
<stop stop-color="#ECC4D7"/>
<stop offset="0.42" stop-color="#EFD4D1"/>
<stop offset="1" stop-color="#F2EAC9"/>
</linearGradient>
<linearGradient id="paint11_linear_122_220" x1="192.501" y1="9.31669" x2="201.786" y2="-2.01141" gradientUnits="userSpaceOnUse">
<stop stop-color="#ECC4D7"/>
<stop offset="0.42" stop-color="#EFD4D1"/>
<stop offset="1" stop-color="#F2EAC9"/>
</linearGradient>
<linearGradient id="paint12_linear_122_220" x1="165.609" y1="146.113" x2="168.005" y2="156.096" gradientUnits="userSpaceOnUse">
<stop stop-color="#68E1FD"/>
<stop offset="0.01" stop-color="#67DDF9"/>
<stop offset="0.12" stop-color="#5CB3CE"/>
<stop offset="0.24" stop-color="#538EA9"/>
<stop offset="0.37" stop-color="#4C718B"/>
<stop offset="0.5" stop-color="#465A73"/>
<stop offset="0.63" stop-color="#424A63"/>
<stop offset="0.79" stop-color="#404059"/>
<stop offset="0.99" stop-color="#3F3D56"/>
</linearGradient>
<linearGradient id="paint13_linear_122_220" x1="224.674" y1="152.841" x2="228.668" y2="158.43" gradientUnits="userSpaceOnUse">
<stop stop-color="#68E1FD"/>
<stop offset="0.01" stop-color="#67DDF9"/>
<stop offset="0.12" stop-color="#5CB3CE"/>
<stop offset="0.24" stop-color="#538EA9"/>
<stop offset="0.37" stop-color="#4C718B"/>
<stop offset="0.5" stop-color="#465A73"/>
<stop offset="0.63" stop-color="#424A63"/>
<stop offset="0.79" stop-color="#404059"/>
<stop offset="0.99" stop-color="#3F3D56"/>
</linearGradient>
<linearGradient id="paint14_linear_122_220" x1="239.288" y1="69.1013" x2="215.729" y2="55.5254" gradientUnits="userSpaceOnUse">
<stop/>
<stop offset="0.98" stop-opacity="0"/>
</linearGradient>
<clipPath id="clip0_122_220">
<rect width="256" height="185.55" fill="white"/>
</clipPath>
</defs>
</svg>
