<svg width="30" height="30" viewBox="0 0 30 30" fill="none" xmlns="http://www.w3.org/2000/svg">
<path d="M21.9951 13.413V23.755C21.9951 24.0202 21.8898 24.2746 21.7022 24.4621C21.5147 24.6496 21.2603 24.755 20.9951 24.755H5.99512C5.7299 24.755 5.47555 24.6496 5.28801 24.4621C5.10047 24.2746 4.99512 24.0202 4.99512 23.755V11.755H12.3381L18.3391 5.755H5.99512C4.34112 5.755 2.99512 7.101 2.99512 8.755V23.755C2.99512 25.409 4.34112 26.755 5.99512 26.755H20.9951C22.6491 26.755 23.9951 25.409 23.9951 23.755V11.412L21.9951 13.413Z" fill="#0B4870"/>
<path d="M25.0048 7.57304L26.4188 6.15904C26.6098 5.97454 26.7621 5.75385 26.867 5.50984C26.9718 5.26584 27.027 5.0034 27.0293 4.73784C27.0316 4.47228 26.981 4.20892 26.8804 3.96313C26.7798 3.71733 26.6313 3.49403 26.4435 3.30625C26.2558 3.11846 26.0325 2.96995 25.7867 2.86939C25.5409 2.76883 25.2775 2.71823 25.012 2.72053C24.7464 2.72284 24.484 2.77801 24.2399 2.88283C23.9959 2.98765 23.7753 3.14002 23.5908 3.33104L22.1768 4.74504L25.0048 7.57304Z" fill="#0B4870"/>
<path d="M20.7619 6.15906L13.6919 13.2301L12.9839 16.7661L16.5199 16.0581L23.5909 8.98806L20.7619 6.15906Z" fill="#0B4870"/>
</svg>
