<svg width="267" height="249" viewBox="0 0 267 249" fill="none" xmlns="http://www.w3.org/2000/svg">
<g clip-path="url(#clip0_16_95)">
<path d="M81.4749 66.0454L80.9824 196.659L41.1351 196.531L41.0772 214.085C41.0649 219.366 43.1498 224.436 46.8738 228.181C50.5977 231.925 55.6561 234.038 60.9371 234.055L80.8608 234.119L196 234.49C198.616 234.498 201.209 233.991 203.629 232.998C206.049 232.004 208.251 230.544 210.107 228.699C211.963 226.855 213.437 224.663 214.446 222.249C215.455 219.835 215.979 217.246 215.987 214.63L216.601 46.5389L101.462 46.1681C98.8444 46.1597 96.2505 46.6673 93.8289 47.6619C91.4073 48.6565 89.2055 50.1186 87.3493 51.9646C85.493 53.8106 84.0188 56.0044 83.0109 58.4204C82.0029 60.8365 81.481 63.4275 81.4749 66.0454Z" fill="#222222"/>
<path d="M41.1547 196.508L81.0018 196.633L80.9466 214.187C80.93 219.471 78.815 224.532 75.0669 228.257C71.3188 231.981 66.2445 234.064 60.9605 234.048C55.6764 234.031 50.6154 231.916 46.8907 228.168C43.1661 224.42 41.0829 219.346 41.0995 214.062L41.1547 196.508Z" fill="#111111"/>
<path d="M29.9422 223.048C28.32 219.305 29.5482 217.011 29.5482 214.357C29.5482 208.778 31.4137 202.458 34.7623 198.495C35.6601 201.33 36.1401 204.281 36.1875 207.255C36.1875 212.834 33.2908 219.073 29.9422 223.048Z" fill="#753AC3"/>
<path d="M22.179 227.051C28.4759 227.051 33.5805 218.206 33.5805 207.295C33.5805 196.385 28.4759 187.54 22.179 187.54C15.8821 187.54 10.7775 196.385 10.7775 207.295C10.7775 218.206 15.8821 227.051 22.179 227.051Z" fill="white"/>
<path d="M50.1729 214.972C50.1729 217.173 51.0709 218.934 49.8485 221.924C44.6344 217.747 40.6717 210.737 40.6717 203.512C40.7409 200.967 41.1123 198.439 41.7782 195.981C47.0155 200.111 50.1729 207.747 50.1729 214.972Z" fill="#753AC3"/>
<path d="M65.014 202.371C65.014 207.755 63.7535 212.604 61.7415 216.09C59.7218 219.59 57.0065 221.627 54.1125 221.627C51.2184 221.627 48.5031 219.59 46.4834 216.09C44.4714 212.604 43.211 207.755 43.211 202.371C43.211 196.987 44.4714 192.138 46.4834 188.651C48.5031 185.152 51.2184 183.115 54.1125 183.115C57.0065 183.115 59.7218 185.152 61.7415 188.651C63.7535 192.138 65.014 196.987 65.014 202.371Z" fill="white" stroke="#222222"/>
<path d="M54.1125 222.127C60.4093 222.127 65.514 213.282 65.514 202.371C65.514 191.46 60.4093 182.615 54.1125 182.615C47.8156 182.615 42.711 191.46 42.711 202.371C42.711 213.282 47.8156 222.127 54.1125 222.127Z" stroke="#FDFDFD" stroke-width="0.579344" stroke-miterlimit="10"/>
<path d="M54.1124 216.912L47.2414 209.056M54.1124 192.499V234.183V192.499ZM54.1124 204.103L59.7031 197.713L54.1124 204.103ZM54.1124 210.406L60.9835 202.55L54.1124 210.406ZM54.1124 216.901L60.9835 209.045L54.1124 216.901ZM54.1124 204.115L48.5102 197.713L54.1124 204.115ZM54.1124 210.418L47.2414 202.562L54.1124 210.418Z" stroke="#222222" stroke-width="0.579344" stroke-linecap="round" stroke-linejoin="round"/>
<path d="M22.179 227.051C28.4759 227.051 33.5805 218.206 33.5805 207.295C33.5805 196.385 28.4759 187.54 22.179 187.54C15.8821 187.54 10.7775 196.385 10.7775 207.295C10.7775 218.206 15.8821 227.051 22.179 227.051Z" stroke="#222222" stroke-width="0.579344" stroke-linecap="round" stroke-linejoin="round"/>
<path d="M22.179 221.843L15.308 213.981M22.179 197.423V234.183V197.423ZM22.179 209.028L27.7697 202.637L22.179 209.028ZM22.179 215.331L29.05 207.475L22.179 215.331ZM22.179 221.825L29.05 213.969L22.179 221.825ZM22.179 209.039L16.5825 202.637L22.179 209.039ZM22.179 215.342L15.308 207.487L22.179 215.342Z" stroke="#222222" stroke-width="0.579344" stroke-linecap="round" stroke-linejoin="round"/>
<path d="M115.726 128.151H57.519C56.5591 128.151 55.781 128.929 55.781 129.889V172.529C55.781 173.489 56.5591 174.267 57.519 174.267H115.726C116.686 174.267 117.464 173.489 117.464 172.529V129.889C117.464 128.929 116.686 128.151 115.726 128.151Z" stroke="#FDFDFD" stroke-width="0.579344" stroke-miterlimit="10"/>
<path d="M112.956 131.1H60.2767C59.3168 131.1 58.5386 131.878 58.5386 132.838V169.574C58.5386 170.534 59.3168 171.312 60.2767 171.312H112.956C113.916 171.312 114.694 170.534 114.694 169.574V132.838C114.694 131.878 113.916 131.1 112.956 131.1Z" fill="#FDFDFD"/>
<path d="M109.283 133.956H95.8542C94.8943 133.956 94.1162 134.734 94.1162 135.694V166.469C94.1162 167.429 94.8943 168.207 95.8542 168.207H109.283C110.243 168.207 111.021 167.429 111.021 166.469V135.694C111.021 134.734 110.243 133.956 109.283 133.956Z" fill="#FDFDFD"/>
<path d="M89.0006 156.487H65.0447C64.0848 156.487 63.3066 157.265 63.3066 158.225V166.475C63.3066 167.435 64.0848 168.213 65.0447 168.213H89.0006C89.9605 168.213 90.7386 167.435 90.7386 166.475V158.225C90.7386 157.265 89.9605 156.487 89.0006 156.487Z" fill="#FDFDFD"/>
<path d="M90.1593 133.956H63.886C63.566 133.956 63.3066 134.216 63.3066 134.536V137.6C63.3066 137.92 63.566 138.18 63.886 138.18H90.1593C90.4792 138.18 90.7386 137.92 90.7386 137.6V134.536C90.7386 134.216 90.4792 133.956 90.1593 133.956Z" fill="#FDFDFD"/>
<path d="M72.5761 141.945H65.9311C64.76 141.945 63.8107 142.895 63.8107 144.066V150.711C63.8107 151.882 64.76 152.831 65.9311 152.831H72.5761C73.7472 152.831 74.6966 151.882 74.6966 150.711V144.066C74.6966 142.895 73.7472 141.945 72.5761 141.945Z" fill="#FDFDFD"/>
<path d="M87.7318 141.945H81.0867C79.9156 141.945 78.9663 142.895 78.9663 144.066V150.711C78.9663 151.882 79.9156 152.831 81.0867 152.831H87.7318C88.9029 152.831 89.8522 151.882 89.8522 150.711V144.066C89.8522 142.895 88.9029 141.945 87.7318 141.945Z" fill="#FDFDFD"/>
<path d="M246.617 26.9164H188.41C187.45 26.9164 186.672 27.6946 186.672 28.6545V71.2942C186.672 72.2541 187.45 73.0323 188.41 73.0323H246.617C247.577 73.0323 248.355 72.2541 248.355 71.2942V28.6545C248.355 27.6946 247.577 26.9164 246.617 26.9164Z" stroke="#FDFDFD" stroke-width="0.579344" stroke-miterlimit="10"/>
<path d="M243.854 29.8712H191.174C190.214 29.8712 189.436 30.6493 189.436 31.6092V68.3454C189.436 69.3053 190.214 70.0834 191.174 70.0834H243.854C244.813 70.0834 245.592 69.3053 245.592 68.3454V31.6092C245.592 30.6493 244.813 29.8712 243.854 29.8712Z" fill="#FDFDFD"/>
<path d="M240.18 32.7272H226.751C225.791 32.7272 225.013 33.5054 225.013 34.4653V65.24C225.013 66.1999 225.791 66.9781 226.751 66.9781H240.18C241.14 66.9781 241.919 66.1999 241.919 65.24V34.4653C241.919 33.5054 241.14 32.7272 240.18 32.7272Z" fill="#FDFDFD"/>
<path d="M219.898 55.2522H195.942C194.982 55.2522 194.204 56.0303 194.204 56.9902V65.2401C194.204 66.2 194.982 66.9781 195.942 66.9781H219.898C220.858 66.9781 221.636 66.2 221.636 65.2401V56.9902C221.636 56.0303 220.858 55.2522 219.898 55.2522Z" fill="#FDFDFD"/>
<path d="M221.056 32.7272H194.783C194.463 32.7272 194.204 32.9866 194.204 33.3066V36.3713C194.204 36.6913 194.463 36.9507 194.783 36.9507H221.056C221.376 36.9507 221.636 36.6913 221.636 36.3713V33.3066C221.636 32.9866 221.376 32.7272 221.056 32.7272Z" fill="#FDFDFD"/>
<path d="M203.473 40.7106H196.828C195.657 40.7106 194.708 41.66 194.708 42.831V49.4761C194.708 50.6472 195.657 51.5965 196.828 51.5965H203.473C204.644 51.5965 205.594 50.6472 205.594 49.4761V42.831C205.594 41.66 204.644 40.7106 203.473 40.7106Z" fill="#FDFDFD"/>
<path d="M218.623 40.7106H211.978C210.807 40.7106 209.858 41.66 209.858 42.831V49.4761C209.858 50.6472 210.807 51.5965 211.978 51.5965H218.623C219.794 51.5965 220.743 50.6472 220.743 49.4761V42.831C220.743 41.66 219.794 40.7106 218.623 40.7106Z" fill="#FDFDFD"/>
<path d="M180.021 181.636L217.024 84.005L256.877 84.1383L256.929 66.5784C256.938 63.9619 256.431 61.3695 255.437 58.949C254.444 56.5286 252.983 54.3275 251.139 52.4715C249.295 50.6155 247.103 49.1409 244.689 48.1319C242.275 47.123 239.686 46.5993 237.069 46.591L217.146 46.5273L102.007 46.1565C99.388 46.1481 96.7932 46.6561 94.3709 47.6514C91.9485 48.6468 89.7462 50.1099 87.8898 51.9571C86.0334 53.8044 84.5594 55.9995 83.5521 58.4168C82.5448 60.8342 82.024 63.4265 82.0195 66.0454L81.4054 234.136L180.021 181.636Z" fill="#222222"/>
<path d="M256.868 84.1637L217.038 84.0386L217.093 66.4845C217.11 61.2005 219.225 56.1394 222.973 52.4148C226.721 48.6901 231.796 46.607 237.08 46.6236C242.364 46.6402 247.425 48.7552 251.149 52.5033C254.874 56.2514 256.957 61.3257 256.941 66.6097L256.885 84.1638L256.868 84.1637Z" fill="#111111"/>
<path d="M144.286 189.116L107.893 187.966C105.654 187.895 103.782 189.652 103.711 191.891L102.857 218.939C102.786 221.177 104.543 223.049 106.782 223.12L143.176 224.27C145.414 224.341 147.286 222.583 147.357 220.345L148.212 193.297C148.282 191.059 146.525 189.186 144.286 189.116Z" fill="#FDFDFD"/>
<path d="M137.337 78.1691L100.943 77.019C98.7048 76.9483 96.8327 78.7057 96.762 80.9443L95.9073 107.992C95.8365 110.231 97.5939 112.103 99.8325 112.173L136.226 113.324C138.465 113.394 140.337 111.637 140.408 109.398L141.262 82.3506C141.333 80.1119 139.576 78.2398 137.337 78.1691Z" fill="#FDFDFD"/>
<path d="M157.746 108.204L202.529 109.844M142.121 153.144L93.1371 151.209L142.121 153.144ZM141.97 166.898L93.1255 165.722L141.97 166.898ZM145.892 179.133L101.984 179.07L145.892 179.133ZM148.882 81.1315L202.43 83.2461L148.882 81.1315ZM148.673 95.0357L201.909 97.1445L148.673 95.0357Z" stroke="#FDFDFD" stroke-width="1.15869" stroke-linecap="round" stroke-linejoin="round"/>
<path d="M257.045 100.87C257.356 102.381 257.59 103.906 257.746 105.441C257.92 106.964 258.024 108.494 258.123 110.023C258.221 111.553 258.25 113.088 258.239 114.623C258.252 116.171 258.185 117.718 258.036 119.258C257.725 117.748 257.493 116.222 257.341 114.687C257.161 113.158 257.057 111.628 256.964 110.099C256.871 108.569 256.837 107.034 256.842 105.499C256.848 103.963 256.918 102.411 257.045 100.87Z" fill="#FDFDFD"/>
<path d="M266.732 109.56C265.221 109.87 263.695 110.104 262.161 110.261C260.631 110.435 259.102 110.539 257.572 110.632C256.043 110.724 254.508 110.765 252.972 110.753C251.425 110.764 249.878 110.697 248.338 110.551C249.848 110.24 251.374 110.006 252.909 109.85C254.432 109.676 255.962 109.572 257.491 109.479C259.021 109.386 260.556 109.351 262.126 109.357C263.696 109.363 265.185 109.404 266.732 109.56ZM246.026 120.133C246.306 121.14 246.512 122.166 246.64 123.204C246.779 124.229 246.883 125.254 246.936 126.286C246.988 127.317 247.005 128.354 246.976 129.391C246.958 130.435 246.864 131.477 246.692 132.508C246.41 131.501 246.203 130.475 246.072 129.437C245.933 128.412 245.829 127.381 245.777 126.349C245.725 125.318 245.713 124.287 245.742 123.25C245.759 122.205 245.854 121.163 246.026 120.133Z" fill="#FDFDFD"/>
<path d="M252.544 125.984C251.536 126.264 250.51 126.471 249.473 126.604C248.448 126.743 247.422 126.842 246.391 126.9C245.36 126.958 244.323 126.963 243.286 126.934C242.241 126.917 241.199 126.822 240.169 126.651C241.176 126.37 242.202 126.165 243.239 126.036C244.265 125.897 245.296 125.793 246.327 125.741C247.359 125.689 248.39 125.671 249.427 125.7C250.471 125.723 251.512 125.818 252.544 125.984ZM14.3231 124.559C14.6417 126.083 14.8503 127.606 15.0183 129.13C15.1863 130.654 15.3022 132.189 15.3949 133.719C15.4876 135.248 15.5223 136.783 15.5165 138.319C15.5256 139.866 15.456 141.413 15.308 142.953C14.9893 141.435 14.7808 139.912 14.6128 138.388C14.4447 136.864 14.3289 135.329 14.2362 133.8C14.1435 132.27 14.1087 130.735 14.1203 129.2C14.1064 127.65 14.1741 126.101 14.3231 124.559Z" fill="#FDFDFD"/>
<path d="M24.0213 133.249C22.5104 133.558 20.9847 133.79 19.4503 133.944C17.9266 134.118 16.3971 134.228 14.8619 134.321C13.3266 134.414 11.7971 134.454 10.2619 134.443C8.71452 134.454 7.16762 134.386 5.62712 134.24C7.13796 133.929 8.6636 133.695 10.1981 133.539C11.7218 133.365 13.2513 133.261 14.7866 133.168C16.3218 133.075 17.8513 133.035 19.3865 133.046C20.9339 133.036 22.4808 133.103 24.0213 133.249ZM25.2495 143.341C25.5297 144.348 25.735 145.375 25.8636 146.412C26.0085 147.437 26.1069 148.469 26.1591 149.5C26.2112 150.531 26.2286 151.562 26.1996 152.599C26.1825 153.644 26.0876 154.686 25.9158 155.716C25.6365 154.709 25.4293 153.683 25.2959 152.646C25.1568 151.62 25.0583 150.589 25.0062 149.558C24.954 148.527 24.9367 147.495 24.9656 146.458C24.9831 145.414 25.078 144.372 25.2495 143.341Z" fill="#FDFDFD"/>
<path d="M31.7671 149.199C30.7616 149.477 29.7374 149.682 28.7024 149.813C27.6712 149.952 26.6457 150.056 25.6145 150.108C24.5833 150.16 23.552 150.178 22.515 150.149C21.4705 150.132 20.4286 150.037 19.3981 149.865C20.4022 149.58 21.4268 149.372 22.4629 149.245C23.4941 149.106 24.5196 149.002 25.5508 148.95C26.582 148.897 27.6132 148.892 28.6561 148.892C29.6993 148.917 30.7392 149.019 31.7671 149.199ZM143.436 0.00012207C143.754 1.518 143.963 3.04168 144.131 4.57115C144.299 6.10062 144.415 7.62429 144.508 9.15956C144.6 10.6948 144.635 12.2243 144.629 13.7596C144.623 15.2948 144.583 16.8301 144.426 18.3943C144.116 16.8835 143.882 15.3578 143.725 13.8233C143.552 12.2996 143.442 10.7701 143.349 9.23487C143.256 7.69961 143.221 6.17014 143.233 4.63488C143.222 3.08752 143.29 1.54062 143.436 0.00012207V0.00012207Z" fill="#FDFDFD"/>
<path d="M153.117 8.69021C151.599 9.00885 150.075 9.21742 148.546 9.38543C147.016 9.55344 145.492 9.6693 143.963 9.762C142.433 9.85469 140.898 9.88945 139.357 9.88366C137.81 9.89254 136.263 9.82293 134.722 9.6751C136.24 9.35646 137.764 9.14789 139.293 8.97988C140.823 8.81187 142.352 8.69601 143.882 8.60331C145.411 8.51062 146.947 8.47585 148.482 8.48744C150.029 8.47354 151.576 8.54122 153.117 8.69021ZM154.374 18.7708C154.654 19.7782 154.861 20.8043 154.994 21.8413C155.133 22.8668 155.231 23.8922 155.289 24.9234C155.347 25.9547 155.353 26.9917 155.324 28.0229C155.306 29.0694 155.212 30.1131 155.04 31.1456C154.76 30.1386 154.555 29.1123 154.426 28.0751C154.281 27.0496 154.183 26.0184 154.13 24.9872C154.078 23.9559 154.061 22.9247 154.09 21.8877C154.107 20.8431 154.202 19.8013 154.374 18.7708Z" fill="#FDFDFD"/>
<path d="M160.886 24.6223C159.878 24.9016 158.852 25.1087 157.815 25.2422C156.79 25.3812 155.758 25.4797 154.727 25.5377C153.696 25.5956 152.665 25.6014 151.628 25.5724C150.583 25.5552 149.541 25.4603 148.511 25.2885C149.518 25.0078 150.544 24.8025 151.581 24.6744C152.607 24.5296 153.632 24.4311 154.663 24.379C155.695 24.3268 156.732 24.3094 157.763 24.3384C158.809 24.3559 159.853 24.4508 160.886 24.6223Z" fill="#FDFDFD"/>
<path d="M0.557861 234.183H226.398" stroke="#545454" stroke-width="0.579344" stroke-linecap="round" stroke-linejoin="round"/>
</g>
<defs>
<clipPath id="clip0_16_95">
<rect width="266.464" height="248.892" fill="white" transform="translate(0.268188)"/>
</clipPath>
</defs>
</svg>
