<svg width="20" height="21" viewBox="0 0 20 21" fill="none" xmlns="http://www.w3.org/2000/svg">
<g clip-path="url(#clip0_23_448)">
<path d="M15.625 0.806641L7.88188 8.54914C7.04143 8.29436 6.153 8.23991 5.28773 8.39014C4.42246 8.54038 3.60439 8.89113 2.89902 9.41431C2.19365 9.93749 1.62058 10.6186 1.2257 11.403C0.830814 12.1874 0.625091 13.0534 0.625 13.9316C0.625 15.4235 1.21763 16.8542 2.27252 17.9091C3.32742 18.964 4.75816 19.5566 6.25 19.5566C7.12823 19.5565 7.99423 19.3507 8.77864 18.9557C9.56306 18.5608 10.2441 17.9876 10.7672 17.2822C11.2903 16.5768 11.641 15.7586 11.7912 14.8933C11.9413 14.028 11.8868 13.1396 11.6319 12.2991L13.125 10.8066V9.55664H14.375L19.375 4.55664V0.806641H15.625ZM18.125 4.03852L13.8575 8.30664H11.875V10.2885L10.7481 11.4148L10.2181 11.9448L10.4356 12.6616C10.5613 13.0754 10.625 13.5023 10.625 13.9316C10.625 16.3441 8.66187 18.3066 6.25 18.3066C3.83812 18.3066 1.875 16.3441 1.875 13.9316C1.875 11.5191 3.83812 9.55664 6.25 9.55664C6.67875 9.55664 7.10625 9.62039 7.51937 9.74539L8.23563 9.96289L8.76562 9.43289L16.1425 2.05664H18.125V4.03852Z" fill="#111111" fill-opacity="0.37"/>
<path d="M5 16.4316C5.69036 16.4316 6.25 15.872 6.25 15.1816C6.25 14.4913 5.69036 13.9316 5 13.9316C4.30964 13.9316 3.75 14.4913 3.75 15.1816C3.75 15.872 4.30964 16.4316 5 16.4316Z" fill="#111111" fill-opacity="0.37"/>
<path d="M12.9038 6.83606L16.6538 3.08606L17.0957 3.52793L13.3457 7.27793L12.9038 6.83606Z" fill="#111111" fill-opacity="0.37"/>
</g>
<defs>
<clipPath id="clip0_23_448">
<rect width="20" height="20" fill="white" transform="translate(0 0.181641)"/>
</clipPath>
</defs>
</svg>
