<svg width="21" height="20" viewBox="0 0 21 20" fill="none" xmlns="http://www.w3.org/2000/svg">
<path d="M10.9903 9.16667C11.6496 9.16667 12.2941 8.97117 12.8422 8.6049C13.3904 8.23863 13.8176 7.71803 14.0699 7.10895C14.3222 6.49986 14.3882 5.82964 14.2596 5.18303C14.131 4.53643 13.8135 3.94249 13.3473 3.47631C12.8812 3.01014 12.2872 2.69267 11.6406 2.56405C10.994 2.43543 10.3238 2.50144 9.7147 2.75374C9.10562 3.00603 8.58502 3.43327 8.21875 3.98143C7.85248 4.5296 7.65698 5.17406 7.65698 5.83334C7.65698 6.71739 8.00817 7.56524 8.63329 8.19036C9.25841 8.81548 10.1063 9.16667 10.9903 9.16667ZM10.9903 4.16667C11.32 4.16667 11.6422 4.26442 11.9163 4.44755C12.1903 4.63069 12.404 4.89099 12.5301 5.19553C12.6563 5.50007 12.6893 5.83518 12.625 6.15849C12.5606 6.48179 12.4019 6.77876 12.1688 7.01185C11.9357 7.24493 11.6388 7.40367 11.3155 7.46798C10.9922 7.53229 10.6571 7.49928 10.3525 7.37313C10.048 7.24699 9.78767 7.03337 9.60453 6.75929C9.4214 6.4852 9.32365 6.16297 9.32365 5.83334C9.32365 5.39131 9.49924 4.96738 9.8118 4.65482C10.1244 4.34226 10.5483 4.16667 10.9903 4.16667ZM10.9903 10.8333C9.44322 10.8333 7.95949 11.4479 6.86553 12.5419C5.77156 13.6358 5.15698 15.1196 5.15698 16.6667C5.15698 16.8877 5.24478 17.0996 5.40106 17.2559C5.55734 17.4122 5.7693 17.5 5.99032 17.5C6.21133 17.5 6.42329 17.4122 6.57957 17.2559C6.73585 17.0996 6.82365 16.8877 6.82365 16.6667C6.82365 15.5616 7.26264 14.5018 8.04404 13.7204C8.82544 12.939 9.88525 12.5 10.9903 12.5C12.0954 12.5 13.1552 12.939 13.9366 13.7204C14.718 14.5018 15.157 15.5616 15.157 16.6667C15.157 16.8877 15.2448 17.0996 15.4011 17.2559C15.5573 17.4122 15.7693 17.5 15.9903 17.5C16.2113 17.5 16.4233 17.4122 16.5796 17.2559C16.7359 17.0996 16.8236 16.8877 16.8236 16.6667C16.8236 15.1196 16.2091 13.6358 15.1151 12.5419C14.0211 11.4479 12.5374 10.8333 10.9903 10.8333Z" fill="#111111" fill-opacity="0.37"/>
</svg>
