<svg width="20" height="20" viewBox="0 0 20 20" fill="none" xmlns="http://www.w3.org/2000/svg">
<path d="M9.99992 3.33331C5.83325 3.33331 2.27492 5.92498 0.833252 9.58331C2.27492 13.2416 5.83325 15.8333 9.99992 15.8333C14.1666 15.8333 17.7249 13.2416 19.1666 9.58331C17.7249 5.92498 14.1666 3.33331 9.99992 3.33331ZM9.99992 13.75C7.69992 13.75 5.83325 11.8833 5.83325 9.58331C5.83325 7.28331 7.69992 5.41665 9.99992 5.41665C12.2999 5.41665 14.1666 7.28331 14.1666 9.58331C14.1666 11.8833 12.2999 13.75 9.99992 13.75ZM9.99992 7.08331C8.61659 7.08331 7.49992 8.19998 7.49992 9.58331C7.49992 10.9666 8.61659 12.0833 9.99992 12.0833C11.3833 12.0833 12.4999 10.9666 12.4999 9.58331C12.4999 8.19998 11.3833 7.08331 9.99992 7.08331Z" fill="#111111" fill-opacity="0.6"/>
</svg>
