<svg width="20" height="20" viewBox="0 0 20 20" fill="none" xmlns="http://www.w3.org/2000/svg">
<path d="M9.99992 5.41667C12.2999 5.41667 14.1666 7.28334 14.1666 9.58334C14.1666 10.0083 14.0833 10.4167 13.9666 10.8L16.5166 13.35C17.6749 12.325 18.5916 11.0417 19.1666 9.575C17.7249 5.925 14.1666 3.33334 9.99992 3.33334C8.94159 3.33334 7.92492 3.5 6.96659 3.80834L8.77492 5.61667C9.16659 5.5 9.57492 5.41667 9.99992 5.41667ZM2.25825 2.63334C1.93325 2.95834 1.93325 3.48334 2.25825 3.80834L3.89992 5.45C2.54992 6.525 1.47492 7.94167 0.833252 9.58334C2.27492 13.2417 5.83325 15.8333 9.99992 15.8333C11.2666 15.8333 12.4749 15.5833 13.5916 15.15L15.8583 17.4167C16.1833 17.7417 16.7083 17.7417 17.0333 17.4167C17.3583 17.0917 17.3583 16.5667 17.0333 16.2417L3.44159 2.63334C3.11659 2.30834 2.58325 2.30834 2.25825 2.63334ZM9.99992 13.75C7.69992 13.75 5.83325 11.8833 5.83325 9.58334C5.83325 8.94167 5.98325 8.33334 6.24159 7.8L7.54992 9.10834C7.52492 9.25834 7.49992 9.41667 7.49992 9.58334C7.49992 10.9667 8.61659 12.0833 9.99992 12.0833C10.1666 12.0833 10.3166 12.0583 10.4749 12.025L11.7833 13.3333C11.2416 13.6 10.6416 13.75 9.99992 13.75ZM12.4749 9.30834C12.3499 8.14167 11.4333 7.23334 10.2749 7.10834L12.4749 9.30834Z" fill="#111111" fill-opacity="0.37"/>
</svg>
